# xmcd CD database file
#
# Track frame offsets:
#	150
#	14740
#	27510
#	40443
#	53788
#	68053
#	80055
#	93683
#	106598
#	119390
#	130848
#	144605
#	157120
#	169453
#	182583
#	196328
#	209455
#	222785
#	235965
#	248463
#	260673
#	273785
#
# Disc length: 3811 seconds
#
# Revision: 0
# Processed by: cddbd v1.4PL0 Copyright (c) Steve Scherf et al.
# Submitted via: CDex 1.40Release
#
DISCID=480ee116
DTITLE=Blind Lemon Jefferson - Got the Blues 1925-27
DYEAR=1927
DGENRE=Blues
TTITLE0=ALL I WANT IS THAT PURE RELIGION
TTITLE1=BOOSTER BLUES
TTITLE2=DRY SOUTHERN BLUES
TTITLE3=BLACK HORSE BLUES
TTITLE4=CORRINA BLUES
TTITLE5=CHOCK HOUSE BLUES
TTITLE6=WARTIME BLUES
TTITLE7=RABBIT FOOT BLUES
TTITLE8=GOT THE BLUES
TTITLE9=JACK O DIAMOND BLUES
TTITLE10=BLACK SNAKE MOAN
TTITLE11=RAMBLER BLUES
TTITLE12=HOW LONG, HOW LONG
TTITLE13=MATCHBOX BLUES
TTITLE14=HOT DOGS
TTITLE15=HE AROSE FROM THE DEAD
TTITLE16=ONE DIME BLUES
TTITLE17=EASY RIDER BLUES
TTITLE18=BOOGER ROOGER BLUES
TTITLE19=GONE DEAD ON YOU BLUES
TTITLE20=RIGHT OF WAY BLUES
TTITLE21=BLACK SNAKE DREAM BLUES
EXTD=YEAR: 1927 ID3G: 0
EXTT0=
EXTT1=
EXTT2=
EXTT3=
EXTT4=
EXTT5=
EXTT6=
EXTT7=
EXTT8=
EXTT9=
EXTT10=
EXTT11=
EXTT12=
EXTT13=
EXTT14=
EXTT15=
EXTT16=
EXTT17=
EXTT18=
EXTT19=
EXTT20=
EXTT21=
PLAYORDER=
